<?xml version="1.0" standalone="no"?>
<!DOCTYPE svg PUBLIC "-//W3C//DTD SVG 20010904//EN"
 "http://www.w3.org/TR/2001/REC-SVG-20010904/DTD/svg10.dtd">
<svg version="1.0" xmlns="http://www.w3.org/2000/svg"
 width="1136.000000pt" height="653.000000pt" viewBox="0 0 1136.000000 653.000000"
 preserveAspectRatio="xMidYMid meet">

<g transform="translate(0.000000,653.000000) scale(0.100000,-0.100000)"
fill="#000000" stroke="none">
<path d="M4293 5291 c-61 -16 -140 -61 -181 -103 -68 -72 -91 -98 -87 -98 3 0
-4 -22 -14 -48 -97 -244 68 -518 332 -552 40 -5 138 -10 220 -10 159 0 169 4
122 49 -14 13 -25 31 -25 40 0 10 -9 26 -19 35 -19 17 -23 17 -92 -18 -64 -32
-80 -36 -150 -36 -147 0 -255 66 -319 196 -28 57 -33 77 -33 143 0 107 29 179
103 251 99 98 237 127 367 78 71 -26 160 -111 194 -184 45 -97 26 -276 -38
-346 -15 -17 -15 -20 7 -43 13 -14 33 -25 44 -25 11 0 33 -12 49 -27 l29 -28
-4 215 -3 215 -31 65 c-45 95 -102 153 -191 197 -66 33 -84 37 -161 40 -48 1
-101 -2 -119 -6z"/>
<path d="M4310 5197 c-87 -25 -156 -82 -202 -170 -19 -35 -23 -58 -23 -134 0
-95 12 -130 36 -106 9 9 7 16 -6 29 -14 15 -17 30 -13 88 11 168 129 280 293
280 116 -1 213 -63 261 -168 25 -57 41 -136 27 -136 -5 0 -8 -13 -5 -28 9 -66
-70 -177 -156 -219 -76 -37 -185 -39 -247 -5 -32 18 -35 22 -13 18 14 -3 33
-9 42 -12 14 -5 16 5 16 72 0 71 -2 80 -27 106 -25 26 -28 27 -45 11 -15 -13
-18 -31 -18 -97 l0 -81 -37 37 c-32 33 -35 39 -23 55 8 10 4 9 -10 -4 l-24
-23 38 -39 c145 -149 399 -106 496 83 30 59 34 77 34 139 0 125 -61 225 -169
278 -73 36 -156 46 -225 26z"/>
<path d="M5834 5180 c-25 -10 -35 -30 -27 -59 6 -24 41 -36 78 -27 21 5 25 12
25 41 0 29 -5 37 -26 45 -14 6 -26 10 -27 9 -1 0 -11 -4 -23 -9z"/>
<path d="M5050 5157 c-19 -7 -44 -27 -57 -46 -44 -65 -22 -121 58 -150 54 -20
60 -47 9 -45 -19 1 -45 5 -56 9 -19 6 -24 1 -34 -30 -15 -46 -9 -52 63 -67
103 -22 178 25 181 110 1 51 -21 76 -85 97 -52 18 -58 25 -34 45 11 9 22 9 46
1 38 -13 44 -10 57 29 9 25 8 31 -6 39 -31 17 -106 21 -142 8z"/>
<path d="M6490 5000 l0 -160 110 0 110 0 0 40 0 40 -55 0 c-48 0 -55 2 -55 20
0 17 7 20 45 20 45 0 45 0 45 34 0 34 -1 35 -42 38 -36 2 -44 7 -46 26 -3 20
0 22 47 22 l51 0 0 40 0 40 -105 0 -105 0 0 -160z"/>
<path d="M6310 5101 c0 -30 -4 -41 -15 -41 -11 0 -15 -11 -15 -39 0 -25 5 -41
15 -45 11 -4 15 -22 15 -76 l0 -70 50 0 50 0 0 75 c0 60 3 75 15 75 11 0 15
11 15 40 0 28 -4 40 -14 40 -10 0 -16 13 -18 38 -3 37 -3 37 -50 40 l-48 3 0
-40z"/>
<path d="M5270 4900 l0 -160 -82 -1 -83 -2 108 -8 c59 -4 155 -4 215 0 l107 8
-82 2 -83 1 0 56 0 56 25 -16 c36 -24 73 -20 109 12 30 26 31 28 25 95 -4 52
-11 73 -29 92 -27 29 -74 33 -108 9 -20 -14 -23 -14 -28 0 -4 11 -19 16 -50
16 l-44 0 0 -160z m160 60 c15 -28 -4 -62 -33 -58 -22 3 -34 35 -23 64 8 21
44 17 56 -6z"/>
<path d="M5580 4945 l0 -115 55 0 55 0 0 60 c0 50 3 61 21 70 11 7 27 9 35 6
11 -4 14 5 14 44 0 54 -11 62 -46 35 -25 -19 -34 -19 -34 0 0 11 -12 15 -50
15 l-50 0 0 -115z"/>
<path d="M5810 4945 l0 -115 50 0 50 0 0 115 0 115 -50 0 -50 0 0 -115z"/>
<path d="M5980 4971 c0 -62 -4 -91 -12 -94 -10 -4 -10 -6 0 -6 6 -1 12 -10 12
-21 0 -17 7 -20 50 -20 l50 0 0 64 c0 43 5 67 15 76 25 21 35 1 35 -71 l0 -69
50 0 50 0 0 95 c0 82 -3 98 -20 115 -24 24 -67 26 -99 4 -22 -16 -24 -16 -33
0 -6 11 -23 16 -53 16 l-45 0 0 -89z"/>
<path d="M6770 4945 l0 -115 50 0 50 0 0 53 c0 59 22 91 57 85 15 -2 19 5 21
40 4 49 -17 65 -47 38 -22 -20 -41 -21 -41 -1 0 11 -12 15 -45 15 l-45 0 0
-115z"/>
<path d="M6997 5053 c-4 -3 -7 -75 -7 -160 l0 -153 -82 -2 -83 -1 95 -8 c52
-4 149 -4 215 0 l120 6 -80 5 -80 5 -3 53 c-3 53 5 64 28 37 21 -25 77 -19
108 13 34 34 40 88 17 149 -24 63 -74 82 -124 47 -22 -16 -24 -16 -33 0 -9 16
-77 23 -91 9z m151 -85 c17 -17 15 -43 -4 -59 -31 -26 -70 25 -44 56 15 18 32
19 48 3z"/>
<path d="M4493 5023 c-29 -4 -31 -6 -20 -24 10 -17 4 -27 -57 -88 l-69 -70
-39 33 -39 34 -59 -63 c-74 -76 -79 -96 -7 -26 28 28 57 51 63 51 7 0 26 -16
43 -35 17 -19 34 -35 38 -35 8 0 47 33 125 108 39 37 50 43 62 33 17 -15 22
-8 31 47 7 46 10 45 -72 35z"/>
<path d="M4485 4890 c-10 -11 -20 -18 -24 -16 -8 5 -4 -234 4 -242 3 -3 26 4
50 16 l45 22 0 101 c0 55 -5 109 -10 120 -14 25 -42 24 -65 -1z"/>
<path d="M4387 4792 c-48 -48 -48 -49 -45 -108 l3 -59 48 -3 47 -3 0 110 c0
61 -1 111 -3 111 -1 0 -24 -22 -50 -48z"/>
<path d="M6090 4745 l-23 -25 51 0 c57 0 65 9 27 34 -31 20 -27 21 -55 -9z"/>
<path d="M4993 4733 c20 -2 54 -2 75 0 20 2 3 4 -38 4 -41 0 -58 -2 -37 -4z"/>
<path d="M5643 4733 c59 -2 155 -2 215 0 59 1 10 3 -108 3 -118 0 -167 -2
-107 -3z"/>
<path d="M6308 4733 c18 -2 45 -2 60 0 15 2 0 4 -33 4 -33 0 -45 -2 -27 -4z"/>
<path d="M6503 4733 c59 -2 155 -2 215 0 59 1 10 3 -108 3 -118 0 -167 -2
-107 -3z"/>
<path d="M6167 4653 c-4 -3 -7 -26 -7 -50 0 -32 4 -43 15 -43 11 0 15 12 15
50 0 46 -7 60 -23 43z"/>
<path d="M6032 4607 l-2 -43 60 -2 60 -2 0 29 c0 27 -3 30 -30 29 -17 -1 -33
-5 -36 -10 -10 -17 -24 -7 -24 17 0 46 -27 29 -28 -18z"/>
<path d="M6897 4643 c-2 -5 -5 -25 -6 -45 -2 -33 0 -38 18 -38 12 0 21 5 21
12 0 9 3 9 12 0 30 -30 84 2 57 34 -13 16 -45 18 -54 4 -9 -15 -25 -2 -25 21
0 19 -15 26 -23 12z"/>
<path d="M5215 4617 c8 -12 15 -29 15 -39 0 -10 7 -18 15 -18 8 0 15 7 15 15
0 9 7 26 15 39 15 23 15 23 -30 24 -44 0 -45 0 -30 -21z"/>
<path d="M5570 4601 c0 -30 4 -41 15 -41 8 0 15 5 15 10 0 6 12 15 26 20 39
15 28 44 -19 48 l-37 3 0 -40z"/>
<path d="M5752 4624 c-14 -24 -2 -64 18 -64 11 0 19 9 22 24 5 26 -7 56 -22
56 -5 0 -13 -7 -18 -16z"/>
<path d="M5977 4626 c-4 -10 -17 -13 -46 -9 -40 5 -41 5 -41 -24 0 -38 3 -41
40 -35 21 3 30 10 30 23 0 11 5 19 10 19 6 0 10 -9 10 -20 0 -11 6 -20 14 -20
15 0 27 45 19 67 -7 17 -29 17 -36 -1z"/>
<path d="M6292 4628 c-17 -17 -15 -55 4 -62 55 -21 102 17 68 55 -19 21 -54
25 -72 7z m48 -28 c0 -5 -7 -10 -15 -10 -8 0 -15 5 -15 10 0 6 7 10 15 10 8 0
15 -4 15 -10z"/>
<path d="M6580 4601 c0 -34 3 -41 20 -41 11 0 20 6 20 14 0 7 9 16 21 19 36
10 20 42 -24 45 l-37 3 0 -40z"/>
<path d="M5302 4611 c-23 -14 -10 -46 21 -49 31 -4 46 20 27 43 -14 17 -29 19
-48 6z"/>
<path d="M5375 4610 c-14 -22 6 -50 36 -50 26 0 29 3 29 30 0 33 -14 39 -29
13 -10 -17 -10 -17 -11 0 0 19 -15 23 -25 7z"/>
<path d="M5460 4590 c0 -33 23 -42 34 -12 3 9 9 23 12 30 4 8 -3 12 -20 12
-22 0 -26 -4 -26 -30z"/>
<path d="M5671 4606 c-18 -21 -2 -46 29 -46 31 0 47 25 29 46 -6 8 -19 14 -29
14 -10 0 -23 -6 -29 -14z"/>
<path d="M5811 4607 c-18 -23 -3 -47 31 -47 26 0 29 3 26 28 -3 31 -37 42 -57
19z"/>
<path d="M6390 4589 c0 -25 4 -29 29 -29 21 0 32 6 36 21 9 26 1 33 -36 35
-26 1 -29 -2 -29 -27z"/>
<path d="M6477 4613 c-11 -11 -8 -53 4 -53 14 0 49 43 42 52 -5 10 -37 10 -46
1z"/>
<path d="M6687 4613 c-4 -3 -7 -17 -7 -30 0 -22 4 -23 63 -23 35 0 66 2 69 5
3 3 3 17 0 31 -3 19 -10 24 -26 22 -12 -2 -21 -10 -21 -20 0 -9 -4 -20 -8 -24
-4 -4 -7 5 -7 19 0 23 -4 27 -28 27 -16 0 -32 -3 -35 -7z"/>
<path d="M6837 4613 c-4 -3 -7 -17 -7 -30 0 -16 6 -23 19 -23 25 0 32 11 24
38 -5 21 -23 29 -36 15z"/>
<path d="M7022 4588 c3 -31 5 -33 38 -30 44 5 46 7 32 37 -9 19 -19 25 -42 25
-29 0 -31 -2 -28 -32z"/>
<path d="M6200 4570 c0 -5 7 -10 15 -10 8 0 15 5 15 10 0 6 -7 10 -15 10 -8 0
-15 -4 -15 -10z"/>
<path d="M7110 4570 c0 -5 7 -10 15 -10 8 0 15 5 15 10 0 6 -7 10 -15 10 -8 0
-15 -4 -15 -10z"/>
<path d="M8360 2870 c0 -5 11 -10 25 -10 l25 0 0 -124 0 -124 -31 15 c-44 22
-136 14 -177 -16 -52 -36 -66 -74 -70 -186 -3 -89 -1 -105 20 -145 31 -61 77
-90 142 -90 52 0 91 18 110 49 8 13 11 12 16 -9 6 -24 8 -25 108 -28 65 -2
102 1 102 8 0 5 -9 10 -20 10 -20 0 -20 7 -20 330 l0 330 -115 0 c-70 0 -115
-4 -115 -10z m34 -282 c13 -18 16 -53 16 -170 0 -135 -2 -150 -20 -168 -22
-22 -37 -25 -60 -10 -21 13 -22 328 -1 353 19 24 47 21 65 -5z"/>
<path d="M8723 2845 c-30 -21 -39 -74 -19 -113 17 -33 34 -42 76 -42 87 0 132
89 75 145 -29 30 -97 34 -132 10z"/>
<path d="M2461 2819 c-120 -47 -181 -152 -181 -308 0 -156 47 -245 152 -291
72 -31 190 -38 277 -15 45 11 67 13 74 6 23 -23 27 -8 27 89 0 59 -4 100 -10
100 -5 0 -21 -22 -35 -50 -83 -164 -199 -186 -271 -50 -17 31 -19 59 -19 220
0 173 1 188 23 227 65 123 193 87 266 -76 11 -23 23 -40 28 -39 5 2 9 7 9 11
-1 4 -1 47 -1 95 l0 88 -37 1 c-21 1 -85 4 -143 7 -93 6 -111 4 -159 -15z"/>
<path d="M6781 2819 c-120 -47 -181 -152 -181 -308 0 -156 47 -245 152 -291
72 -31 190 -38 277 -15 45 11 67 13 74 6 23 -23 27 -8 27 89 0 59 -4 100 -10
100 -5 0 -21 -22 -35 -50 -83 -164 -199 -186 -271 -50 -17 31 -19 59 -19 220
0 173 1 188 23 227 65 123 193 87 266 -76 11 -23 23 -40 28 -39 5 2 9 7 9 11
-1 4 -1 47 -1 95 l0 88 -37 1 c-21 1 -85 4 -143 7 -93 6 -111 4 -159 -15z"/>
<path d="M3938 2768 l-78 -20 0 -59 c0 -56 -1 -59 -25 -59 -14 0 -25 -4 -25
-10 0 -5 11 -10 25 -10 l25 0 0 -155 c0 -177 9 -213 62 -245 41 -25 135 -27
178 -5 42 22 92 125 61 125 -5 0 -12 -13 -16 -29 -12 -57 -83 -97 -99 -55 -3
9 -6 94 -6 190 l0 174 55 0 c30 0 55 5 55 10 0 6 -25 10 -55 10 l-55 0 0 80
c0 58 -3 80 -12 79 -7 -1 -48 -10 -90 -21z"/>
<path d="M9058 2768 l-78 -20 0 -59 c0 -56 -1 -59 -25 -59 -14 0 -25 -4 -25
-10 0 -5 11 -10 25 -10 l25 0 0 -155 c0 -177 9 -213 62 -245 41 -25 135 -27
178 -5 42 22 92 125 61 125 -5 0 -12 -13 -16 -29 -12 -57 -83 -97 -99 -55 -3
9 -6 94 -6 190 l0 174 55 0 c30 0 55 5 55 10 0 6 -25 10 -55 10 l-55 0 0 80
c0 58 -3 80 -12 79 -7 -1 -48 -10 -90 -21z"/>
<path d="M3522 2620 c-68 -42 -94 -139 -53 -206 16 -27 93 -74 121 -74 5 0 34
-9 65 -21 49 -18 55 -24 55 -48 0 -36 -19 -51 -68 -58 -27 -4 -54 1 -86 16
-40 17 -50 28 -69 70 -12 28 -25 51 -29 51 -5 0 -8 -36 -8 -80 0 -44 3 -80 6
-80 4 0 12 8 19 17 12 17 16 17 62 0 157 -56 285 28 258 170 -11 59 -58 97
-157 127 -98 30 -116 45 -100 81 12 27 64 42 109 30 26 -6 87 -61 110 -100 10
-17 12 -8 12 53 1 39 -2 72 -5 72 -3 0 -12 -7 -20 -14 -13 -13 -20 -13 -55 0
-59 20 -128 18 -167 -6z"/>
<path d="M4325 2628 c-88 -31 -138 -105 -138 -208 -1 -85 16 -131 62 -173 53
-48 98 -60 193 -55 67 4 85 9 120 34 63 44 83 92 83 194 0 72 -4 92 -24 128
-36 61 -102 92 -195 91 -39 0 -84 -5 -101 -11z m126 -25 c20 -23 25 -328 7
-363 -18 -35 -62 -39 -80 -8 -18 32 -18 334 0 366 15 26 53 29 73 5z"/>
<path d="M4953 2621 c-17 -11 -36 -28 -42 -38 -9 -15 -10 -13 -11 15 l0 32
-110 0 c-67 0 -110 -4 -110 -10 0 -5 11 -10 25 -10 l25 0 0 -195 0 -195 -25 0
c-14 0 -25 -4 -25 -10 0 -6 48 -10 125 -10 77 0 125 4 125 10 0 6 -7 10 -15
10 -13 0 -15 22 -15 143 0 119 4 149 20 185 20 44 52 57 64 26 3 -9 6 -92 6
-185 0 -144 -2 -169 -15 -169 -8 0 -15 -4 -15 -10 0 -6 47 -10 121 -10 77 0
118 4 114 10 -3 6 -13 10 -21 10 -24 0 -16 291 9 338 13 25 24 32 40 30 22 -3
22 -6 25 -185 2 -158 0 -183 -13 -183 -8 0 -15 -4 -15 -10 0 -6 50 -10 131
-10 84 0 128 4 124 10 -3 6 -17 10 -31 10 l-24 0 0 165 c0 129 -3 173 -15 195
-41 80 -185 80 -233 0 l-18 -28 -13 29 c-25 58 -124 78 -188 40z"/>
<path d="M5621 2626 c-60 -21 -109 -72 -126 -128 -28 -95 -15 -174 38 -235 45
-51 98 -73 179 -73 109 0 167 33 198 114 15 40 -6 31 -31 -14 -37 -66 -121
-90 -172 -50 -27 21 -47 89 -47 155 l0 35 131 0 132 0 -7 47 c-15 111 -78 164
-195 162 -36 0 -81 -6 -100 -13z m119 -25 c5 -11 10 -49 10 -85 l0 -66 -46 0
-47 0 5 63 c3 35 11 73 17 85 14 27 47 28 61 3z"/>
<path d="M6223 2621 c-17 -11 -36 -28 -42 -38 -9 -15 -10 -13 -11 15 l0 32
-110 0 c-67 0 -110 -4 -110 -10 0 -5 11 -10 25 -10 l25 0 0 -195 0 -195 -25 0
c-14 0 -25 -4 -25 -10 0 -6 55 -10 146 -10 94 0 143 4 139 10 -3 6 -19 10 -36
10 l-29 0 0 133 c0 142 10 197 41 228 23 23 69 26 69 4 0 -9 -11 -20 -25 -25
-29 -11 -33 -44 -9 -78 23 -34 95 -31 123 4 49 63 4 154 -76 154 -21 0 -52 -9
-70 -19z"/>
<path d="M7473 2621 c-17 -11 -36 -28 -42 -38 -9 -15 -10 -13 -11 15 l0 32
-110 0 c-67 0 -110 -4 -110 -10 0 -5 11 -10 25 -10 l25 0 0 -195 0 -195 -25 0
c-14 0 -25 -4 -25 -10 0 -6 55 -10 146 -10 94 0 143 4 139 10 -3 6 -19 10 -36
10 l-29 0 0 133 c0 142 10 197 41 228 23 23 69 26 69 4 0 -9 -11 -20 -25 -25
-29 -11 -33 -44 -9 -78 23 -34 95 -31 123 4 49 63 4 154 -76 154 -21 0 -52 -9
-70 -19z"/>
<path d="M7791 2626 c-60 -21 -109 -72 -126 -128 -28 -95 -15 -174 38 -235 45
-51 98 -73 179 -73 109 0 167 33 198 114 15 40 -6 31 -31 -14 -37 -66 -121
-90 -172 -50 -27 21 -47 89 -47 155 l0 35 131 0 132 0 -7 47 c-15 111 -78 164
-195 162 -36 0 -81 -6 -100 -13z m119 -25 c5 -11 10 -49 10 -85 l0 -66 -46 0
-47 0 5 63 c3 35 11 73 17 85 14 27 47 28 61 3z"/>
<path d="M2870 2620 c0 -5 11 -10 25 -10 l25 0 1 -152 c1 -175 10 -212 60
-246 46 -32 145 -28 182 6 29 27 37 28 37 2 0 -19 7 -20 105 -20 63 0 105 4
105 10 0 6 -11 10 -25 10 l-25 0 0 205 0 205 -105 0 c-63 0 -105 -4 -105 -10
0 -5 9 -10 20 -10 19 0 20 -7 20 -155 0 -162 -9 -205 -46 -219 -39 -15 -44 8
-44 205 l0 189 -115 0 c-70 0 -115 -4 -115 -10z"/>
<path d="M8640 2620 c0 -5 14 -10 30 -10 l30 0 0 -195 0 -195 -25 0 c-14 0
-25 -4 -25 -10 0 -6 52 -10 135 -10 83 0 135 4 135 10 0 6 -11 10 -25 10 l-25
0 0 205 0 205 -115 0 c-70 0 -115 -4 -115 -10z"/>
<path d="M5243 1645 c-30 -21 -39 -74 -19 -113 17 -33 34 -42 76 -42 87 0 132
89 75 145 -29 30 -97 34 -132 10z"/>
<path d="M6343 1645 c-30 -21 -39 -74 -19 -113 17 -33 34 -42 76 -42 87 0 132
89 75 145 -29 30 -97 34 -132 10z"/>
<path d="M4640 1620 c0 -5 11 -10 25 -10 l25 0 0 -295 0 -295 -25 0 c-14 0
-25 -4 -25 -10 0 -16 480 -13 485 3 2 6 6 54 10 105 7 110 -5 120 -48 39 -46
-90 -112 -137 -188 -137 l-29 0 0 295 0 295 50 0 c28 0 50 5 50 10 0 6 -62 10
-165 10 -103 0 -165 -4 -165 -10z"/>
<path d="M6678 1568 l-78 -20 0 -59 c0 -56 -1 -59 -25 -59 -14 0 -25 -4 -25
-10 0 -5 11 -10 25 -10 l25 0 0 -155 c0 -177 9 -213 62 -245 41 -25 135 -27
178 -5 42 22 92 125 61 125 -5 0 -12 -13 -16 -29 -12 -57 -83 -97 -99 -55 -3
9 -6 94 -6 190 l0 174 55 0 c30 0 55 5 55 10 0 6 -25 10 -55 10 l-55 0 0 80
c0 58 -3 80 -12 79 -7 -1 -48 -10 -90 -21z"/>
<path d="M5733 1421 c-17 -11 -36 -28 -42 -38 -9 -15 -10 -13 -11 15 l0 32
-110 0 c-67 0 -110 -4 -110 -10 0 -5 11 -10 25 -10 l25 0 0 -195 0 -195 -25 0
c-14 0 -25 -4 -25 -10 0 -6 48 -10 125 -10 77 0 125 4 125 10 0 6 -7 10 -15
10 -13 0 -15 22 -15 143 0 119 4 149 20 185 20 44 52 57 64 26 3 -9 6 -92 6
-185 0 -144 -2 -169 -15 -169 -8 0 -15 -4 -15 -10 0 -6 47 -10 121 -10 77 0
118 4 114 10 -3 6 -13 10 -21 10 -24 0 -16 291 9 338 13 25 24 32 40 30 22 -3
22 -6 25 -185 2 -158 0 -183 -13 -183 -8 0 -15 -4 -15 -10 0 -6 50 -10 131
-10 84 0 128 4 124 10 -3 6 -17 10 -31 10 l-24 0 0 165 c0 129 -3 173 -15 195
-41 80 -185 80 -233 0 l-18 -28 -13 29 c-25 58 -124 78 -188 40z"/>
<path d="M5160 1420 c0 -5 14 -10 30 -10 l30 0 0 -195 0 -195 -25 0 c-14 0
-25 -4 -25 -10 0 -6 52 -10 135 -10 83 0 135 4 135 10 0 6 -11 10 -25 10 l-25
0 0 205 0 205 -115 0 c-70 0 -115 -4 -115 -10z"/>
<path d="M6260 1420 c0 -5 14 -10 30 -10 l30 0 0 -195 0 -195 -25 0 c-14 0
-25 -4 -25 -10 0 -6 52 -10 135 -10 83 0 135 4 135 10 0 6 -11 10 -25 10 l-25
0 0 205 0 205 -115 0 c-70 0 -115 -4 -115 -10z"/>
</g>
</svg>
